<svg xmlns="http://www.w3.org/2000/svg" viewBox="0 0 680 500" role="img" aria-labelledby="title desc">
  <title id="title">Photo Unavailable</title>
  <desc id="desc">A clean branded Bits and Bytes Cafe placeholder for menu items without a photo.</desc>
  <defs>
    <linearGradient id="bg" x1="0" y1="0" x2="1" y2="1">
      <stop offset="0" stop-color="#fffaf2"/>
      <stop offset="0.56" stop-color="#ffffff"/>
      <stop offset="1" stop-color="#f2f8ee"/>
    </linearGradient>
    <radialGradient id="glow" cx="50%" cy="42%" r="55%">
      <stop offset="0" stop-color="#f36c13" stop-opacity="0.14"/>
      <stop offset="1" stop-color="#f36c13" stop-opacity="0"/>
    </radialGradient>
    <filter id="softShadow" x="-20%" y="-20%" width="140%" height="140%">
      <feDropShadow dx="0" dy="18" stdDeviation="18" flood-color="#523414" flood-opacity="0.14"/>
    </filter>
  </defs>
  <rect width="680" height="500" rx="34" fill="url(#bg)"/>
  <rect width="680" height="500" rx="34" fill="url(#glow)"/>
  <path d="M52 91c27-20 58-20 78 2-11 23-38 41-80 38 1-16 2-29 2-40Z" fill="#4a9c2d" opacity="0.92"/>
  <path d="M557 365c31-15 61-9 77 18-16 21-47 34-86 22 4-15 7-28 9-40Z" fill="#5db33a" opacity="0.86"/>
  <path d="M507 89c22-13 46-9 59 10-13 16-37 25-66 16 3-10 5-19 7-26Z" fill="#4a9c2d" opacity="0.8"/>
  <g filter="url(#softShadow)">
    <circle cx="340" cy="214" r="86" fill="#fff"/>
    <circle cx="340" cy="214" r="66" fill="#fff5e8"/>
    <path d="M279 214h122" stroke="#f36c13" stroke-width="14" stroke-linecap="round"/>
    <path d="M310 174c7-24 51-24 60 0" fill="none" stroke="#f36c13" stroke-width="14" stroke-linecap="round"/>
    <path d="M294 254c31 26 61 26 92 0" fill="none" stroke="#519f33" stroke-width="14" stroke-linecap="round"/>
  </g>
  <text x="340" y="344" text-anchor="middle" font-family="Inter, Arial, sans-serif" font-size="35" font-weight="800" fill="#15171d">Photo Unavailable</text>
  <text x="340" y="382" text-anchor="middle" font-family="Inter, Arial, sans-serif" font-size="18" font-weight="600" fill="#646a73">Fresh flavor coming soon</text>
  <circle cx="117" cy="397" r="7" fill="#f36c13" opacity="0.6"/>
  <circle cx="588" cy="134" r="5" fill="#f36c13" opacity="0.45"/>
</svg>
